<svg xmlns="http://www.w3.org/2000/svg" width="157" height="169" viewBox="0 0 157 169" version="1.1"><path d="M 52 6.015 C 52 9.577, 51.414 10.566, 46.818 14.765 C 30.418 29.752, 30.224 30.269, 37.100 40.791 C 41.012 46.778, 41.125 47.168, 39.576 49.283 C 30.756 61.325, 27.996 68.969, 28.006 81.331 C 28.012 89.395, 29.568 96.385, 31.141 95.413 C 31.844 94.978, 31.827 94.427, 31.087 93.687 C 29.243 91.843, 29.772 78.690, 31.885 73.833 C 34.703 67.356, 43.587 58.243, 59.596 45.406 C 67.486 39.079, 74.255 33.396, 74.638 32.777 C 76.217 30.221, 75.310 23.339, 72.979 20.185 C 70.570 16.927, 67.592 15.772, 68.639 18.502 C 70.206 22.586, 66.715 27.117, 55.500 35.553 C 52.750 37.622, 50.271 39.581, 49.991 39.907 C 44.401 46.422, 40 45.876, 40 38.668 C 40 34.051, 41.666 32.012, 52.367 23.532 C 60.259 17.277, 61.135 12.247, 55.640 4.750 C 52.882 0.988, 52 1.294, 52 6.015 M 84.999 26.750 C 84.998 27.163, 83.828 28.850, 82.398 30.500 C 80.969 32.150, 78.473 35.336, 76.852 37.580 C 75.231 39.825, 69.849 45.225, 64.892 49.580 C 45.631 66.505, 41.475 80.862, 52.367 92.847 C 57.587 98.592, 73.158 101.270, 78.214 97.293 C 80.545 95.459, 85.436 95.145, 89.500 96.568 C 114.427 105.295, 146.006 80.340, 125.701 67.960 C 117.623 63.034, 105 71.497, 105 81.838 C 105 86.843, 96.047 85.203, 93.081 79.655 C 91.029 75.816, 88.696 76.431, 81.747 82.644 C 75.833 87.932, 68.430 87.265, 62.189 80.882 C 54.938 73.465, 56.176 69.299, 69.758 55.425 C 83.621 41.264, 92.364 26, 86.611 26 C 85.725 26, 84.999 26.337, 84.999 26.750 M 113 52.166 C 107.225 55.463, 100.250 59.362, 97.500 60.830 C 88.971 65.384, 95.469 64.599, 105.017 59.923 C 109.682 57.637, 116.313 54.475, 119.750 52.895 C 124.393 50.761, 126 49.506, 126 48.011 C 126 45.087, 124.635 45.523, 113 52.166 M 75.174 57.314 C 70.522 62.267, 73.779 69, 80.826 69 C 87.951 69, 91.548 61.742, 86.686 57.174 C 83.514 54.195, 78.043 54.261, 75.174 57.314" stroke="none" fill="#091c43" fill-rule="evenodd"/><path d="M 150.687 74.750 C 148.669 76.263, 146.327 78.494, 145.482 79.708 C 144.637 80.923, 143.355 81.690, 142.633 81.413 C 141.911 81.136, 140.686 81.717, 139.910 82.704 C 138.598 84.375, 138.640 84.399, 140.500 83.048 C 142.212 81.806, 142.314 81.804, 141.212 83.037 C 140.503 83.829, 139.154 84.482, 138.214 84.488 C 137.274 84.495, 136.504 85.025, 136.503 85.667 C 136.501 86.308, 136.090 87.208, 135.590 87.667 C 135.061 88.151, 134.981 87.976, 135.399 87.250 C 136.659 85.060, 134.177 85.909, 132.557 88.223 C 131.701 89.445, 130.985 90.007, 130.967 89.473 C 130.948 88.938, 130.003 89.619, 128.865 90.986 C 127.728 92.354, 126.055 93.479, 125.148 93.486 C 124.205 93.494, 123.643 94.142, 123.833 95 C 124.017 95.825, 123.832 96.165, 123.423 95.756 C 123.014 95.347, 122.046 95.917, 121.271 97.023 C 120.497 98.129, 119.525 98.824, 119.111 98.569 C 117.794 97.755, 111.855 101.956, 112.605 103.170 C 113.037 103.868, 112.864 104.034, 112.160 103.599 C 111.529 103.209, 109.547 104.001, 107.756 105.360 C 105.965 106.719, 100.939 110.235, 96.587 113.174 C 87.305 119.441, 87.289 119.494, 93.402 123.885 C 99.057 127.946, 98.095 128.291, 114 116.503 C 120.325 111.815, 127.750 106.416, 130.500 104.505 C 133.250 102.595, 140.225 97.753, 146 93.747 C 156.500 86.463, 156.500 86.463, 156.798 80.238 C 157.115 73.590, 155.109 72.876, 149.746 77.730 C 148.779 78.605, 147.756 79.090, 147.474 78.807 C 147.191 78.524, 148.768 77.095, 150.980 75.632 C 153.191 74.169, 155 72.753, 155 72.486 C 155 71.642, 154.447 71.932, 150.687 74.750 M 3.750 75.795 C 2.788 75.988, 1.963 76.676, 1.918 77.323 C 1.873 77.970, 1.637 79.704, 1.393 81.176 C 1.150 82.648, 1.412 84.137, 1.976 84.485 C 2.539 84.833, 3 85.568, 3 86.118 C 3 86.668, 2.550 86.840, 2 86.500 C 1.450 86.160, 1 86.117, 1 86.405 C 1 87.528, 8.391 91.876, 9.322 91.301 C 9.865 90.966, 10.044 91.121, 9.719 91.646 C 9.394 92.171, 14.047 95.953, 20.058 100.050 C 26.069 104.148, 34.532 109.975, 38.866 113 C 58.473 126.686, 61.803 128.874, 62.382 128.451 C 62.722 128.203, 62.790 128.285, 62.533 128.633 C 62.074 129.256, 69.149 134.456, 88.106 147.427 C 99.355 155.123, 97.771 154.762, 103.450 150.929 C 109.159 147.076, 109.156 147.050, 102.389 142.558 C 99.303 140.509, 97.103 139.433, 97.499 140.166 C 97.895 140.900, 97.158 140.354, 95.860 138.953 C 94.562 137.552, 93.950 137.063, 94.500 137.866 C 95.976 140.023, 91.783 137.679, 89.918 135.305 C 88.593 133.618, 88.631 133.598, 90.500 135 C 92.278 136.333, 92.370 136.333, 91.327 135 C 90.682 134.175, 88.657 132.675, 86.827 131.667 C 83.500 129.833, 83.500 129.833, 86 131.984 C 88.050 133.747, 88.120 133.949, 86.392 133.108 C 85.232 132.543, 83.511 130.903, 82.567 129.462 C 81.580 127.956, 80.259 127.070, 79.458 127.378 C 78.691 127.672, 77.755 127.413, 77.378 126.802 C 76.933 126.082, 77.152 125.976, 78 126.500 C 78.864 127.034, 79.068 126.918, 78.599 126.160 C 78.208 125.528, 76.959 124.513, 75.824 123.906 C 74.360 123.122, 73.955 123.117, 74.431 123.889 C 74.848 124.562, 74.524 124.755, 73.584 124.394 C 72.747 124.073, 72.162 123.368, 72.282 122.827 C 72.402 122.286, 69.637 119.815, 66.138 117.337 C 62.640 114.858, 60.075 113.313, 60.440 113.903 C 60.853 114.572, 60.502 114.746, 59.509 114.365 C 58.632 114.028, 58.143 113.524, 58.423 113.243 C 59.207 112.460, 51.043 106.855, 50.030 107.482 C 49.539 107.785, 48.813 107.506, 48.415 106.862 C 47.933 106.083, 48.161 105.939, 49.095 106.432 C 51.493 107.698, 45.778 103.237, 40 99.333 C 36.975 97.289, 33.389 94.691, 32.030 93.559 C 30.503 92.285, 30.044 92.134, 30.829 93.161 C 31.697 94.297, 31.762 95.029, 31.037 95.477 C 30.413 95.863, 29.724 94.869, 29.363 93.066 C 28.810 90.301, 27.498 89.416, 24.676 89.906 C 24.222 89.985, 24.081 89.678, 24.361 89.225 C 24.641 88.771, 23.953 87.827, 22.831 87.126 C 21.420 86.245, 21.014 86.214, 21.516 87.026 C 22.067 87.917, 21.731 87.926, 20.121 87.065 C 18.954 86.440, 18 85.694, 18 85.406 C 18 85.118, 18.563 85.220, 19.250 85.633 C 20.058 86.118, 20.001 85.769, 19.090 84.646 C 18.314 83.691, 17.098 83.132, 16.387 83.405 C 15.676 83.678, 14.140 82.686, 12.973 81.200 C 11.806 79.715, 11.164 79.107, 11.547 79.850 C 12.106 80.938, 11.830 80.979, 10.121 80.065 C 8.954 79.440, 8 78.694, 8 78.406 C 8 78.118, 8.563 78.220, 9.250 78.633 C 10.056 79.117, 9.999 78.767, 9.088 77.645 C 8.061 76.380, 7.476 76.230, 6.940 77.098 C 6.398 77.973, 6.109 77.912, 5.851 76.867 C 5.658 76.084, 4.713 75.601, 3.750 75.795 M 153.324 100.250 C 152.888 100.938, 152.524 101.800, 152.515 102.167 C 152.507 102.533, 152.090 103.208, 151.590 103.667 C 151.061 104.151, 150.981 103.976, 151.399 103.250 C 151.794 102.563, 151.668 102, 151.118 102 C 150.028 102, 148.540 103.954, 148.515 105.417 C 148.507 105.921, 147.825 106.518, 147 106.743 C 145.667 107.107, 145.667 107.034, 147 106.091 C 147.825 105.508, 148.110 105.024, 147.634 105.015 C 146.309 104.992, 137.200 111.901, 136.741 113.278 C 136.518 113.945, 135.473 114.493, 134.418 114.496 C 133.356 114.498, 132.623 115.091, 132.775 115.824 C 132.926 116.553, 132.662 116.909, 132.188 116.616 C 130.982 115.871, 126.841 118.934, 127.535 120.057 C 127.848 120.563, 127.478 120.737, 126.712 120.443 C 125.947 120.149, 124.686 120.717, 123.910 121.704 C 122.594 123.380, 122.633 123.400, 124.500 122 C 126.338 120.621, 126.393 120.637, 125.177 122.191 C 124.449 123.120, 123.245 123.648, 122.502 123.362 C 121.753 123.075, 119.347 124.701, 117.112 127.004 C 114.665 129.525, 112.605 130.874, 111.883 130.428 C 111.163 129.983, 110.954 130.116, 111.355 130.765 C 111.720 131.356, 111.369 132.488, 110.576 133.281 C 109.320 134.537, 109.480 134.975, 111.817 136.676 C 116.345 139.971, 117.415 140.484, 116.463 138.905 C 115.744 137.712, 115.870 137.706, 117.292 138.859 C 119.109 140.333, 117.379 141.409, 145.267 121.469 C 155.900 113.867, 163.904 98.414, 155.547 101.620 C 154.696 101.947, 154 101.749, 154 101.180 C 154 100.612, 154.787 99.941, 155.750 99.689 C 157.328 99.277, 157.334 99.221, 155.809 99.116 C 154.879 99.052, 153.761 99.563, 153.324 100.250 M 2.271 101.092 C 3.245 101.659, 3.777 102.553, 3.452 103.078 C 3.127 103.603, 2.443 103.774, 1.931 103.457 C 1.399 103.129, 1 105.243, 1 108.384 C 1 113.834, 3.665 117.943, 6.188 116.384 C 6.662 116.091, 6.926 116.282, 6.775 116.808 C 6.478 117.843, 12.060 121.939, 43.150 143.500 C 54.253 151.200, 63.712 157.388, 64.169 157.250 C 64.626 157.113, 65 157.435, 65 157.968 C 65 159.475, 77.033 167.098, 78.237 166.353 C 78.872 165.961, 79.018 166.162, 78.595 166.845 C 77.428 168.735, 78.936 168.184, 84.110 164.832 C 89.729 161.190, 89.879 160.806, 86.535 158.615 C 83.579 156.678, 82.629 156.560, 83.601 158.250 C 84.019 158.976, 83.939 159.151, 83.410 158.667 C 82.910 158.208, 82.489 157.308, 82.476 156.667 C 82.463 156.025, 81.722 155.555, 80.831 155.621 C 79.940 155.688, 77.925 154.638, 76.355 153.289 C 73.500 150.835, 73.500 150.835, 77 153 C 80.500 155.165, 80.500 155.165, 77.597 152.673 C 76 151.302, 74.133 150.395, 73.448 150.658 C 72.763 150.921, 71.862 150.586, 71.447 149.914 C 70.932 149.080, 71.108 148.949, 72 149.500 C 72.848 150.024, 73.067 149.918, 72.622 149.198 C 72.245 148.587, 71.342 148.315, 70.616 148.594 C 69.890 148.873, 68.544 147.953, 67.625 146.550 C 66.706 145.148, 65.402 144.007, 64.727 144.015 C 63.924 144.025, 64.019 144.397, 65 145.091 C 66.333 146.034, 66.333 146.107, 65 145.743 C 64.175 145.518, 63.499 144.696, 63.497 143.917 C 63.496 143.137, 62.740 142.494, 61.818 142.487 C 60.896 142.480, 59.772 142.071, 59.321 141.577 C 58.844 141.056, 59.129 141.002, 60 141.449 C 60.825 141.873, 60.150 141.060, 58.500 139.642 C 56.850 138.225, 54.970 137.249, 54.323 137.473 C 53.676 137.698, 52.551 137.120, 51.823 136.191 C 50.634 134.671, 50.677 134.639, 52.250 135.872 C 53.213 136.627, 54 136.997, 54 136.693 C 54 136.390, 51.878 134.710, 49.285 132.960 C 46.692 131.210, 45.230 130.582, 46.035 131.564 C 47.438 133.274, 47.384 133.274, 44.750 131.560 C 41.982 129.758, 40.925 128.326, 43.250 129.528 C 43.938 129.883, 43.375 129.242, 42 128.105 C 40.625 126.967, 38.952 126.233, 38.282 126.474 C 37.612 126.715, 36.755 126.413, 36.378 125.802 C 35.921 125.064, 36.162 124.975, 37.095 125.537 C 38.295 126.260, 38.294 126.130, 37.090 124.646 C 36.314 123.691, 35.091 123.135, 34.372 123.411 C 33.653 123.687, 32.755 123.413, 32.378 122.802 C 31.933 122.082, 32.185 121.960, 33.095 122.455 C 33.868 122.876, 33.150 122.060, 31.500 120.642 C 29.850 119.225, 27.943 118.259, 27.262 118.497 C 26.581 118.734, 26.131 118.382, 26.262 117.714 C 26.393 117.046, 25.744 116.494, 24.821 116.487 C 23.897 116.480, 22.772 116.071, 22.321 115.577 C 21.846 115.058, 22.133 114.990, 23 115.416 C 23.825 115.821, 23.413 115.198, 22.085 114.032 C 20.757 112.866, 19.102 112.130, 18.408 112.397 C 17.714 112.663, 16.551 112.120, 15.823 111.191 C 14.607 109.637, 14.662 109.621, 16.500 111 C 18.278 112.333, 18.370 112.333, 17.327 111 C 15.824 109.078, 9.455 105.309, 10.461 106.937 C 10.877 107.610, 9.626 107.118, 7.680 105.842 C 5.735 104.567, 4.332 103.335, 4.563 103.104 C 5.221 102.445, 2.882 99.997, 1.628 100.030 C 1.007 100.047, 1.297 100.525, 2.271 101.092 M 151.872 128.692 C 150.704 130.133, 150.708 130.258, 151.905 129.537 C 152.887 128.946, 153.082 129.059, 152.553 129.914 C 152.138 130.586, 151.213 130.912, 150.499 130.638 C 148.940 130.040, 142.384 134.713, 142.775 136.143 C 142.926 136.696, 142.569 136.851, 141.981 136.488 C 140.542 135.599, 137.855 137.934, 138.671 139.363 C 139.028 139.988, 138.955 140.169, 138.509 139.766 C 138.063 139.362, 137.057 139.812, 136.275 140.766 C 135.492 141.719, 135.165 141.891, 135.549 141.146 C 136.027 140.218, 135.425 140.330, 133.632 141.506 C 132.194 142.448, 131.262 143.614, 131.561 144.098 C 131.859 144.581, 131.439 144.722, 130.626 144.410 C 129.726 144.065, 128.489 144.851, 127.459 146.422 C 126.530 147.840, 124.948 149, 123.944 149 C 122.940 149, 121.797 149.520, 121.405 150.155 C 120.924 150.931, 121.150 151.042, 122.095 150.493 C 122.868 150.045, 122.477 150.803, 121.226 152.179 C 117.331 156.463, 115.358 166.567, 118.664 165.299 C 119.845 164.845, 120.100 165.030, 119.541 165.934 C 118.583 167.484, 122.227 165.198, 131.500 158.432 C 135.350 155.622, 142.325 150.707, 147 147.508 C 157.355 140.424, 162.256 129, 154.941 129 C 153.809 129, 153.160 128.550, 153.500 128 C 154.506 126.372, 153.358 126.860, 151.872 128.692 M 3.500 129.563 C 5.150 130.416, 7.175 131.796, 8 132.629 C 9.070 133.711, 8.587 133.628, 6.315 132.341 C 2.436 130.145, 2.376 130.204, 1.773 136.772 C 1.318 141.734, 17.518 156.171, 23.694 156.307 C 24.351 156.321, 24.801 156.679, 24.694 157.101 C 24.245 158.873, 37.307 166.990, 38.720 165.817 C 42.296 162.850, 39.931 153.943, 34.540 150.072 C 31.812 148.113, 29.938 147.183, 30.377 148.005 C 30.815 148.827, 30.347 148.581, 29.337 147.457 C 26.443 144.238, 23.403 142.102, 24.418 144 C 24.859 144.825, 24.158 144.342, 22.860 142.927 C 19.493 139.256, 16.338 136.980, 17.418 139 C 17.859 139.825, 17.158 139.281, 15.860 137.790 C 13.061 134.576, 3.590 127.997, 1.774 128.006 C 1.073 128.010, 1.850 128.710, 3.500 129.563 M 154.145 157.137 C 152.850 157.619, 150.491 158.939, 148.902 160.070 C 147.313 161.201, 145.612 161.878, 145.120 161.574 C 144.629 161.271, 143.613 161.805, 142.863 162.761 C 141.601 164.371, 141.648 164.389, 143.500 163 C 145.364 161.602, 145.405 161.622, 144.100 163.283 C 143.330 164.264, 142.205 164.891, 141.600 164.676 C 140.336 164.227, 134.624 167.957, 135.395 168.728 C 135.675 169.009, 136.714 168.429, 137.702 167.440 C 139.353 165.790, 139.526 165.780, 139.823 167.321 C 140.254 169.558, 155.739 169.844, 156.588 167.631 C 158.205 163.418, 156.535 156.247, 154.145 157.137 M 3.500 157.907 C 1.412 158.526, 0.881 163.407, 2.484 167.250 C 3.492 169.667, 17.565 169.915, 16.638 167.500 C 15.937 165.673, 16.795 165.581, 18.976 167.250 C 19.875 167.938, 19.243 167.255, 17.572 165.732 C 15.901 164.210, 13.978 163.178, 13.299 163.439 C 12.620 163.699, 11.755 163.413, 11.378 162.802 C 10.933 162.082, 11.152 161.976, 12 162.500 C 12.892 163.051, 13.068 162.920, 12.553 162.086 C 12.138 161.414, 11.183 161.100, 10.431 161.388 C 9.679 161.677, 8.755 161.413, 8.378 160.802 C 7.933 160.082, 8.152 159.976, 9 160.500 C 9.864 161.034, 10.068 160.918, 9.599 160.160 C 8.451 158.303, 5.652 157.269, 3.500 157.907" stroke="none" fill="#a57e2b" fill-rule="evenodd"/></svg>