<?xml version="1.0" encoding="UTF-8"?>
<svg xmlns="http://www.w3.org/2000/svg" xmlns:xlink="http://www.w3.org/1999/xlink" width="30px" height="32px" viewBox="0 0 30 32" version="1.1">
<g id="surface1">
<path style=" stroke:none;fill-rule:evenodd;fill:rgb(3.529412%,10.980392%,26.274511%);fill-opacity:1;" d="M 9.9375 1.140625 C 9.9375 1.8125 9.824219 2 8.945312 2.796875 C 5.8125 5.632812 5.773438 5.730469 7.089844 7.722656 C 7.835938 8.855469 7.859375 8.929688 7.5625 9.332031 C 5.875 11.613281 5.347656 13.058594 5.351562 15.398438 C 5.351562 16.925781 5.648438 18.25 5.949219 18.066406 C 6.085938 17.984375 6.082031 17.878906 5.941406 17.738281 C 5.585938 17.390625 5.6875 14.898438 6.09375 13.980469 C 6.632812 12.753906 8.328125 11.027344 11.386719 8.597656 C 12.894531 7.398438 14.1875 6.324219 14.261719 6.207031 C 14.5625 5.722656 14.390625 4.417969 13.945312 3.820312 C 13.484375 3.207031 12.914062 2.988281 13.117188 3.503906 C 13.414062 4.277344 12.75 5.132812 10.605469 6.730469 C 10.078125 7.125 9.605469 7.496094 9.550781 7.554688 C 8.484375 8.789062 7.644531 8.6875 7.644531 7.320312 C 7.644531 6.449219 7.960938 6.0625 10.007812 4.457031 C 11.515625 3.269531 11.683594 2.320312 10.632812 0.898438 C 10.105469 0.1875 9.9375 0.246094 9.9375 1.140625 M 16.242188 5.066406 C 16.242188 5.144531 16.019531 5.460938 15.746094 5.773438 C 15.472656 6.085938 14.996094 6.691406 14.683594 7.117188 C 14.375 7.539062 13.347656 8.5625 12.398438 9.386719 C 8.71875 12.59375 7.925781 15.3125 10.007812 17.582031 C 11.003906 18.667969 13.980469 19.175781 14.945312 18.421875 C 15.390625 18.074219 16.324219 18.015625 17.101562 18.285156 C 21.863281 19.9375 27.898438 15.210938 24.019531 12.867188 C 22.476562 11.933594 20.0625 13.539062 20.0625 15.496094 C 20.0625 16.445312 18.351562 16.132812 17.785156 15.082031 C 17.394531 14.355469 16.949219 14.472656 15.621094 15.648438 C 14.492188 16.648438 13.074219 16.523438 11.882812 15.316406 C 10.496094 13.910156 10.734375 13.121094 13.328125 10.496094 C 15.980469 7.8125 17.648438 4.921875 16.550781 4.921875 C 16.378906 4.921875 16.242188 4.988281 16.242188 5.066406 M 21.59375 9.878906 C 20.488281 10.5 19.15625 11.238281 18.628906 11.519531 C 17 12.378906 18.242188 12.230469 20.066406 11.347656 C 20.957031 10.914062 22.226562 10.316406 22.882812 10.015625 C 23.769531 9.613281 24.078125 9.375 24.078125 9.089844 C 24.078125 8.539062 23.816406 8.621094 21.59375 9.878906 M 14.363281 10.851562 C 13.476562 11.789062 14.097656 13.066406 15.445312 13.066406 C 16.804688 13.066406 17.492188 11.691406 16.5625 10.824219 C 15.957031 10.261719 14.914062 10.273438 14.363281 10.851562 "/>
<path style=" stroke:none;fill-rule:evenodd;fill:rgb(64.705884%,49.411765%,16.862746%);fill-opacity:1;" d="M 28.792969 14.152344 C 28.40625 14.441406 27.960938 14.863281 27.800781 15.09375 C 27.636719 15.324219 27.394531 15.46875 27.253906 15.414062 C 27.117188 15.363281 26.882812 15.472656 26.734375 15.660156 C 26.484375 15.976562 26.492188 15.980469 26.847656 15.726562 C 27.175781 15.488281 27.195312 15.488281 26.984375 15.722656 C 26.847656 15.871094 26.589844 15.996094 26.410156 15.996094 C 26.230469 16 26.082031 16.097656 26.082031 16.222656 C 26.082031 16.34375 26.003906 16.511719 25.910156 16.601562 C 25.808594 16.691406 25.792969 16.65625 25.871094 16.519531 C 26.113281 16.105469 25.640625 16.265625 25.328125 16.703125 C 25.164062 16.9375 25.027344 17.042969 25.027344 16.941406 C 25.023438 16.839844 24.839844 16.96875 24.625 17.226562 C 24.40625 17.488281 24.085938 17.699219 23.914062 17.703125 C 23.734375 17.703125 23.625 17.824219 23.664062 17.988281 C 23.699219 18.144531 23.664062 18.207031 23.585938 18.132812 C 23.507812 18.054688 23.320312 18.160156 23.171875 18.371094 C 23.023438 18.582031 22.839844 18.710938 22.761719 18.664062 C 22.507812 18.511719 21.375 19.304688 21.515625 19.535156 C 21.597656 19.667969 21.566406 19.699219 21.433594 19.617188 C 21.3125 19.542969 20.933594 19.691406 20.589844 19.949219 C 20.25 20.207031 19.289062 20.871094 18.457031 21.429688 C 16.683594 22.617188 16.679688 22.625 17.847656 23.457031 C 18.929688 24.226562 18.746094 24.292969 21.785156 22.058594 C 22.992188 21.171875 24.410156 20.148438 24.9375 19.789062 C 25.460938 19.425781 26.792969 18.507812 27.898438 17.75 C 29.90625 16.371094 29.90625 16.371094 29.960938 15.191406 C 30.023438 13.933594 29.636719 13.800781 28.613281 14.71875 C 28.429688 14.882812 28.234375 14.976562 28.179688 14.921875 C 28.125 14.867188 28.425781 14.597656 28.851562 14.320312 C 29.273438 14.042969 29.617188 13.777344 29.617188 13.726562 C 29.617188 13.566406 29.511719 13.621094 28.792969 14.152344 M 0.714844 14.351562 C 0.53125 14.386719 0.375 14.519531 0.367188 14.640625 C 0.359375 14.761719 0.3125 15.09375 0.265625 15.371094 C 0.21875 15.648438 0.269531 15.929688 0.378906 15.996094 C 0.484375 16.0625 0.574219 16.203125 0.574219 16.304688 C 0.574219 16.410156 0.488281 16.441406 0.382812 16.378906 C 0.277344 16.3125 0.191406 16.304688 0.191406 16.359375 C 0.191406 16.574219 1.601562 17.398438 1.78125 17.289062 C 1.886719 17.222656 1.917969 17.253906 1.855469 17.351562 C 1.796875 17.453125 2.683594 18.167969 3.832031 18.945312 C 4.980469 19.71875 6.597656 20.824219 7.425781 21.394531 C 11.171875 23.988281 11.808594 24.402344 11.921875 24.320312 C 11.984375 24.273438 12 24.289062 11.949219 24.355469 C 11.859375 24.472656 13.214844 25.460938 16.835938 27.914062 C 18.984375 29.371094 18.683594 29.304688 19.765625 28.578125 C 20.859375 27.847656 20.859375 27.84375 19.566406 26.992188 C 18.976562 26.605469 18.554688 26.402344 18.628906 26.539062 C 18.707031 26.679688 18.566406 26.574219 18.316406 26.3125 C 18.070312 26.046875 17.953125 25.953125 18.058594 26.105469 C 18.339844 26.511719 17.539062 26.070312 17.183594 25.621094 C 16.929688 25.300781 16.9375 25.296875 17.292969 25.5625 C 17.632812 25.816406 17.648438 25.816406 17.449219 25.5625 C 17.328125 25.40625 16.941406 25.121094 16.589844 24.929688 C 15.957031 24.582031 15.957031 24.582031 16.433594 24.992188 C 16.824219 25.324219 16.839844 25.363281 16.507812 25.203125 C 16.285156 25.097656 15.957031 24.785156 15.777344 24.511719 C 15.589844 24.226562 15.335938 24.0625 15.183594 24.117188 C 15.035156 24.175781 14.859375 24.125 14.785156 24.011719 C 14.699219 23.875 14.742188 23.851562 14.90625 23.953125 C 15.070312 24.054688 15.109375 24.03125 15.019531 23.886719 C 14.945312 23.769531 14.707031 23.578125 14.488281 23.460938 C 14.207031 23.3125 14.132812 23.3125 14.222656 23.457031 C 14.300781 23.585938 14.242188 23.621094 14.0625 23.554688 C 13.902344 23.492188 13.789062 23.359375 13.8125 23.257812 C 13.835938 23.15625 13.304688 22.6875 12.636719 22.21875 C 11.96875 21.75 11.480469 21.457031 11.550781 21.566406 C 11.628906 21.695312 11.5625 21.726562 11.371094 21.65625 C 11.203125 21.589844 11.109375 21.496094 11.164062 21.441406 C 11.3125 21.292969 9.753906 20.234375 9.558594 20.351562 C 9.464844 20.410156 9.328125 20.355469 9.25 20.234375 C 9.160156 20.085938 9.203125 20.058594 9.382812 20.152344 C 9.839844 20.390625 8.746094 19.546875 7.644531 18.808594 C 7.066406 18.421875 6.378906 17.929688 6.121094 17.714844 C 5.828125 17.472656 5.742188 17.445312 5.890625 17.640625 C 6.058594 17.855469 6.070312 17.992188 5.929688 18.078125 C 5.8125 18.152344 5.679688 17.964844 5.609375 17.621094 C 5.503906 17.097656 5.253906 16.929688 4.714844 17.023438 C 4.628906 17.039062 4.601562 16.980469 4.65625 16.894531 C 4.707031 16.808594 4.578125 16.628906 4.363281 16.496094 C 4.09375 16.332031 4.015625 16.324219 4.113281 16.476562 C 4.214844 16.648438 4.152344 16.648438 3.84375 16.484375 C 3.621094 16.367188 3.441406 16.226562 3.441406 16.171875 C 3.441406 16.117188 3.546875 16.136719 3.679688 16.214844 C 3.832031 16.304688 3.820312 16.242188 3.648438 16.027344 C 3.5 15.847656 3.265625 15.742188 3.132812 15.792969 C 2.996094 15.84375 2.703125 15.65625 2.480469 15.375 C 2.257812 15.09375 2.132812 14.980469 2.207031 15.121094 C 2.3125 15.324219 2.261719 15.332031 1.933594 15.160156 C 1.710938 15.042969 1.527344 14.902344 1.527344 14.847656 C 1.527344 14.792969 1.636719 14.8125 1.765625 14.890625 C 1.921875 14.980469 1.910156 14.914062 1.738281 14.703125 C 1.539062 14.460938 1.429688 14.433594 1.324219 14.597656 C 1.222656 14.765625 1.167969 14.753906 1.117188 14.554688 C 1.082031 14.40625 0.902344 14.316406 0.714844 14.351562 M 29.296875 18.980469 C 29.214844 19.113281 29.144531 19.277344 29.144531 19.34375 C 29.140625 19.414062 29.0625 19.542969 28.964844 19.628906 C 28.863281 19.722656 28.851562 19.6875 28.929688 19.550781 C 29.003906 19.421875 28.980469 19.3125 28.875 19.3125 C 28.667969 19.3125 28.382812 19.683594 28.378906 19.960938 C 28.378906 20.054688 28.246094 20.167969 28.089844 20.210938 C 27.835938 20.28125 27.835938 20.265625 28.089844 20.089844 C 28.246094 19.976562 28.300781 19.886719 28.210938 19.882812 C 27.957031 19.878906 26.214844 21.1875 26.128906 21.449219 C 26.085938 21.574219 25.886719 21.679688 25.683594 21.679688 C 25.480469 21.679688 25.34375 21.792969 25.371094 21.929688 C 25.398438 22.070312 25.347656 22.136719 25.257812 22.082031 C 25.027344 21.941406 24.238281 22.519531 24.371094 22.734375 C 24.429688 22.828125 24.359375 22.863281 24.210938 22.804688 C 24.066406 22.75 23.824219 22.859375 23.675781 23.042969 C 23.425781 23.363281 23.433594 23.367188 23.789062 23.101562 C 24.140625 22.839844 24.152344 22.84375 23.917969 23.136719 C 23.78125 23.3125 23.550781 23.414062 23.40625 23.359375 C 23.265625 23.304688 22.804688 23.613281 22.378906 24.046875 C 21.910156 24.527344 21.515625 24.78125 21.378906 24.695312 C 21.242188 24.613281 21.203125 24.636719 21.277344 24.761719 C 21.347656 24.871094 21.28125 25.085938 21.128906 25.238281 C 20.890625 25.472656 20.917969 25.558594 21.367188 25.878906 C 22.230469 26.503906 22.4375 26.601562 22.253906 26.300781 C 22.117188 26.074219 22.140625 26.074219 22.414062 26.292969 C 22.757812 26.570312 22.429688 26.777344 27.757812 23 C 29.789062 21.5625 31.320312 18.632812 29.722656 19.242188 C 29.558594 19.304688 29.425781 19.265625 29.425781 19.160156 C 29.425781 19.050781 29.578125 18.921875 29.761719 18.875 C 30.0625 18.796875 30.0625 18.789062 29.773438 18.765625 C 29.59375 18.753906 29.382812 18.851562 29.296875 18.980469 M 0.433594 19.140625 C 0.621094 19.25 0.722656 19.417969 0.660156 19.519531 C 0.597656 19.617188 0.46875 19.648438 0.367188 19.589844 C 0.265625 19.527344 0.191406 19.925781 0.191406 20.523438 C 0.191406 21.554688 0.699219 22.332031 1.183594 22.039062 C 1.273438 21.980469 1.324219 22.019531 1.292969 22.117188 C 1.238281 22.3125 2.304688 23.089844 8.246094 27.171875 C 10.367188 28.628906 12.175781 29.800781 12.261719 29.773438 C 12.347656 29.75 12.421875 29.808594 12.421875 29.910156 C 12.421875 30.195312 14.71875 31.640625 14.949219 31.5 C 15.070312 31.425781 15.097656 31.460938 15.019531 31.59375 C 14.796875 31.949219 15.082031 31.84375 16.070312 31.210938 C 17.144531 30.519531 17.175781 30.449219 16.535156 30.035156 C 15.96875 29.667969 15.789062 29.644531 15.976562 29.964844 C 16.054688 30.101562 16.039062 30.136719 15.9375 30.042969 C 15.84375 29.957031 15.761719 29.785156 15.757812 29.664062 C 15.757812 29.542969 15.617188 29.453125 15.445312 29.464844 C 15.273438 29.480469 14.890625 29.28125 14.589844 29.023438 C 14.042969 28.558594 14.042969 28.558594 14.714844 28.96875 C 15.382812 29.378906 15.382812 29.378906 14.828125 28.910156 C 14.523438 28.648438 14.164062 28.476562 14.035156 28.527344 C 13.902344 28.578125 13.730469 28.511719 13.652344 28.386719 C 13.554688 28.226562 13.585938 28.203125 13.757812 28.308594 C 13.921875 28.40625 13.960938 28.386719 13.875 28.25 C 13.804688 28.136719 13.632812 28.082031 13.492188 28.136719 C 13.355469 28.1875 13.097656 28.015625 12.921875 27.75 C 12.746094 27.484375 12.496094 27.269531 12.367188 27.269531 C 12.214844 27.269531 12.234375 27.339844 12.421875 27.472656 C 12.675781 27.652344 12.675781 27.664062 12.421875 27.597656 C 12.261719 27.554688 12.132812 27.398438 12.132812 27.25 C 12.132812 27.101562 11.988281 26.980469 11.8125 26.980469 C 11.636719 26.976562 11.421875 26.902344 11.335938 26.808594 C 11.242188 26.707031 11.296875 26.699219 11.464844 26.785156 C 11.621094 26.863281 11.492188 26.710938 11.179688 26.441406 C 10.863281 26.171875 10.503906 25.988281 10.378906 26.03125 C 10.257812 26.074219 10.042969 25.964844 9.902344 25.789062 C 9.675781 25.5 9.683594 25.492188 9.984375 25.726562 C 10.167969 25.871094 10.320312 25.941406 10.320312 25.882812 C 10.320312 25.824219 9.914062 25.507812 9.417969 25.175781 C 8.921875 24.84375 8.644531 24.726562 8.796875 24.910156 C 9.066406 25.234375 9.054688 25.234375 8.550781 24.910156 C 8.023438 24.570312 7.820312 24.296875 8.265625 24.527344 C 8.394531 24.59375 8.289062 24.472656 8.027344 24.257812 C 7.761719 24.042969 7.441406 23.902344 7.316406 23.949219 C 7.1875 23.992188 7.023438 23.9375 6.953125 23.820312 C 6.863281 23.679688 6.910156 23.664062 7.089844 23.769531 C 7.316406 23.90625 7.316406 23.882812 7.085938 23.601562 C 6.9375 23.421875 6.707031 23.316406 6.566406 23.367188 C 6.429688 23.421875 6.257812 23.367188 6.1875 23.253906 C 6.101562 23.117188 6.148438 23.09375 6.324219 23.1875 C 6.472656 23.265625 6.335938 23.113281 6.019531 22.84375 C 5.703125 22.574219 5.339844 22.390625 5.210938 22.4375 C 5.078125 22.480469 4.992188 22.414062 5.019531 22.289062 C 5.042969 22.164062 4.917969 22.058594 4.742188 22.058594 C 4.566406 22.054688 4.351562 21.976562 4.265625 21.882812 C 4.175781 21.785156 4.230469 21.773438 4.394531 21.855469 C 4.550781 21.929688 4.472656 21.8125 4.21875 21.59375 C 3.964844 21.371094 3.648438 21.230469 3.515625 21.28125 C 3.386719 21.332031 3.164062 21.230469 3.023438 21.054688 C 2.792969 20.757812 2.800781 20.757812 3.152344 21.019531 C 3.492188 21.269531 3.511719 21.269531 3.3125 21.019531 C 3.023438 20.652344 1.808594 19.941406 2 20.25 C 2.078125 20.375 1.839844 20.28125 1.46875 20.042969 C 1.097656 19.800781 0.828125 19.566406 0.871094 19.523438 C 0.996094 19.398438 0.550781 18.933594 0.3125 18.941406 C 0.191406 18.945312 0.246094 19.035156 0.433594 19.140625 M 29.019531 24.367188 C 28.796875 24.640625 28.796875 24.664062 29.027344 24.527344 C 29.214844 24.414062 29.25 24.4375 29.148438 24.597656 C 29.070312 24.726562 28.894531 24.789062 28.757812 24.734375 C 28.460938 24.621094 27.207031 25.507812 27.28125 25.777344 C 27.3125 25.882812 27.242188 25.914062 27.128906 25.84375 C 26.855469 25.675781 26.339844 26.117188 26.496094 26.386719 C 26.566406 26.507812 26.550781 26.539062 26.464844 26.464844 C 26.382812 26.386719 26.1875 26.472656 26.039062 26.652344 C 25.890625 26.835938 25.828125 26.867188 25.902344 26.726562 C 25.992188 26.550781 25.878906 26.570312 25.535156 26.792969 C 25.261719 26.972656 25.082031 27.191406 25.140625 27.285156 C 25.195312 27.375 25.117188 27.402344 24.960938 27.34375 C 24.789062 27.277344 24.550781 27.425781 24.355469 27.726562 C 24.175781 27.992188 23.875 28.214844 23.683594 28.214844 C 23.492188 28.214844 23.273438 28.3125 23.199219 28.433594 C 23.105469 28.578125 23.148438 28.601562 23.332031 28.496094 C 23.476562 28.410156 23.402344 28.554688 23.164062 28.816406 C 22.421875 29.625 22.042969 31.539062 22.675781 31.300781 C 22.898438 31.214844 22.949219 31.25 22.84375 31.417969 C 22.660156 31.714844 23.355469 31.28125 25.128906 30 C 25.863281 29.46875 27.195312 28.535156 28.089844 27.929688 C 30.066406 26.589844 31.003906 24.425781 29.605469 24.425781 C 29.390625 24.425781 29.265625 24.339844 29.332031 24.238281 C 29.523438 23.929688 29.304688 24.019531 29.019531 24.367188 M 0.667969 24.53125 C 0.984375 24.695312 1.371094 24.957031 1.527344 25.113281 C 1.734375 25.316406 1.640625 25.300781 1.207031 25.058594 C 0.464844 24.644531 0.453125 24.652344 0.339844 25.898438 C 0.25 26.835938 3.347656 29.570312 4.527344 29.597656 C 4.652344 29.597656 4.738281 29.667969 4.71875 29.746094 C 4.632812 30.082031 7.128906 31.621094 7.398438 31.398438 C 8.082031 30.835938 7.628906 29.148438 6.601562 28.414062 C 6.078125 28.046875 5.71875 27.867188 5.804688 28.023438 C 5.886719 28.179688 5.796875 28.132812 5.605469 27.921875 C 5.054688 27.3125 4.472656 26.90625 4.664062 27.265625 C 4.75 27.421875 4.617188 27.332031 4.367188 27.0625 C 3.726562 26.367188 3.121094 25.9375 3.328125 26.320312 C 3.414062 26.476562 3.277344 26.371094 3.03125 26.089844 C 2.496094 25.480469 0.6875 24.234375 0.339844 24.238281 C 0.203125 24.238281 0.351562 24.371094 0.667969 24.53125 M 29.453125 29.753906 C 29.207031 29.84375 28.757812 30.09375 28.453125 30.308594 C 28.148438 30.523438 27.824219 30.652344 27.730469 30.59375 C 27.636719 30.535156 27.441406 30.636719 27.296875 30.820312 C 27.058594 31.125 27.066406 31.125 27.421875 30.863281 C 27.777344 30.597656 27.785156 30.601562 27.535156 30.917969 C 27.386719 31.101562 27.171875 31.222656 27.058594 31.179688 C 26.816406 31.097656 25.722656 31.800781 25.871094 31.949219 C 25.925781 32 26.125 31.890625 26.3125 31.703125 C 26.628906 31.390625 26.660156 31.390625 26.71875 31.683594 C 26.800781 32.105469 29.757812 32.160156 29.921875 31.742188 C 30.230469 30.941406 29.910156 29.585938 29.453125 29.753906 M 0.667969 29.898438 C 0.269531 30.015625 0.167969 30.941406 0.476562 31.667969 C 0.667969 32.125 3.355469 32.171875 3.179688 31.714844 C 3.046875 31.371094 3.210938 31.351562 3.625 31.667969 C 3.796875 31.800781 3.675781 31.667969 3.359375 31.382812 C 3.039062 31.09375 2.671875 30.898438 2.542969 30.945312 C 2.410156 30.996094 2.246094 30.941406 2.175781 30.828125 C 2.089844 30.691406 2.132812 30.671875 2.292969 30.769531 C 2.464844 30.875 2.496094 30.847656 2.398438 30.691406 C 2.320312 30.5625 2.136719 30.503906 1.992188 30.558594 C 1.847656 30.613281 1.671875 30.5625 1.601562 30.449219 C 1.515625 30.3125 1.558594 30.292969 1.71875 30.390625 C 1.886719 30.492188 1.921875 30.46875 1.835938 30.324219 C 1.613281 29.972656 1.078125 29.777344 0.667969 29.898438 "/>
</g>
</svg>
