<?xml version="1.0" encoding="UTF-8"?>
<svg xmlns="http://www.w3.org/2000/svg" xmlns:xlink="http://www.w3.org/1999/xlink" width="158px" height="158px" viewBox="0 0 158 158" version="1.1">
<g id="surface1">
<path style=" stroke:none;fill-rule:evenodd;fill:rgb(3.529412%,10.980392%,26.274511%);fill-opacity:1;" d="M 52.332031 5.625 C 52.332031 8.953125 51.742188 9.878906 47.117188 13.804688 C 30.613281 27.816406 30.417969 28.300781 37.335938 38.136719 C 41.273438 43.734375 41.386719 44.097656 39.828125 46.074219 C 30.953125 57.332031 28.175781 64.480469 28.183594 76.039062 C 28.191406 83.578125 29.757812 90.113281 31.339844 89.203125 C 32.046875 88.796875 32.03125 88.28125 31.285156 87.589844 C 29.429688 85.863281 29.960938 73.566406 32.089844 69.027344 C 34.925781 62.972656 43.863281 54.453125 59.976562 42.449219 C 67.914062 36.535156 74.726562 31.222656 75.113281 30.644531 C 76.703125 28.253906 75.789062 21.820312 73.445312 18.871094 C 71.019531 15.824219 68.023438 14.746094 69.078125 17.296875 C 70.652344 21.117188 67.140625 25.351562 55.851562 33.238281 C 53.085938 35.171875 50.589844 37.003906 50.308594 37.308594 C 44.683594 43.402344 40.253906 42.890625 40.253906 36.152344 C 40.253906 31.835938 41.929688 29.929688 52.699219 22 C 60.644531 16.152344 61.523438 11.449219 55.996094 4.441406 C 53.21875 0.921875 52.332031 1.210938 52.332031 5.625 M 85.539062 25.007812 C 85.539062 25.394531 84.363281 26.972656 82.921875 28.515625 C 81.484375 30.058594 78.972656 33.035156 77.339844 35.132812 C 75.710938 37.234375 70.292969 42.28125 65.304688 46.351562 C 45.921875 62.175781 41.738281 75.597656 52.699219 86.804688 C 57.953125 92.175781 73.625 94.679688 78.710938 90.960938 C 81.058594 89.246094 85.980469 88.953125 90.070312 90.28125 C 115.15625 98.441406 146.9375 75.109375 126.5 63.535156 C 118.371094 58.929688 105.667969 66.84375 105.667969 76.511719 C 105.667969 81.191406 96.660156 79.65625 93.675781 74.46875 C 91.609375 70.882812 89.261719 71.457031 82.269531 77.265625 C 76.316406 82.207031 68.867188 81.585938 62.585938 75.617188 C 55.289062 68.683594 56.535156 64.789062 70.203125 51.816406 C 84.152344 38.578125 92.953125 24.308594 87.164062 24.308594 C 86.269531 24.308594 85.539062 24.621094 85.539062 25.007812 M 113.71875 48.769531 C 107.90625 51.851562 100.886719 55.5 98.121094 56.871094 C 89.539062 61.128906 96.078125 60.394531 105.6875 56.023438 C 110.378906 53.886719 117.054688 50.929688 120.511719 49.453125 C 125.183594 47.457031 126.800781 46.285156 126.800781 44.886719 C 126.800781 42.152344 125.429688 42.558594 113.71875 48.769531 M 75.652344 53.582031 C 70.972656 58.214844 74.25 64.507812 81.339844 64.507812 C 88.511719 64.507812 92.132812 57.722656 87.238281 53.453125 C 84.046875 50.667969 78.539062 50.730469 75.652344 53.582031 "/>
<path style=" stroke:none;fill-rule:evenodd;fill:rgb(64.705884%,49.411765%,16.862746%);fill-opacity:1;" d="M 151.648438 69.882812 C 149.617188 71.300781 147.257812 73.386719 146.410156 74.519531 C 145.558594 75.65625 144.269531 76.371094 143.542969 76.113281 C 142.816406 75.855469 141.582031 76.398438 140.800781 77.320312 C 139.480469 78.882812 139.523438 78.90625 141.394531 77.640625 C 143.117188 76.480469 143.21875 76.480469 142.113281 77.632812 C 141.398438 78.371094 140.039062 78.984375 139.09375 78.988281 C 138.148438 78.996094 137.375 79.492188 137.371094 80.089844 C 137.371094 80.691406 136.957031 81.53125 136.453125 81.960938 C 135.921875 82.414062 135.839844 82.25 136.261719 81.570312 C 137.53125 79.523438 135.03125 80.316406 133.402344 82.480469 C 132.539062 83.625 131.820312 84.148438 131.800781 83.648438 C 131.78125 83.148438 130.832031 83.785156 129.6875 85.0625 C 128.542969 86.34375 126.859375 87.394531 125.945312 87.402344 C 124.996094 87.410156 124.429688 88.015625 124.621094 88.816406 C 124.808594 89.585938 124.621094 89.90625 124.210938 89.523438 C 123.796875 89.140625 122.824219 89.675781 122.042969 90.707031 C 121.265625 91.742188 120.285156 92.390625 119.871094 92.152344 C 118.542969 91.390625 112.566406 95.320312 113.320312 96.453125 C 113.757812 97.105469 113.582031 97.261719 112.875 96.855469 C 112.238281 96.492188 110.246094 97.230469 108.441406 98.503906 C 106.640625 99.773438 101.582031 103.058594 97.203125 105.808594 C 87.859375 111.667969 87.84375 111.714844 93.996094 115.820312 C 99.6875 119.617188 98.71875 119.941406 114.726562 108.921875 C 121.089844 104.535156 128.5625 99.488281 131.332031 97.703125 C 134.097656 95.917969 141.117188 91.390625 146.929688 87.644531 C 157.496094 80.835938 157.496094 80.835938 157.796875 75.015625 C 158.117188 68.800781 156.097656 68.132812 150.699219 72.671875 C 149.726562 73.488281 148.695312 73.941406 148.414062 73.675781 C 148.128906 73.414062 149.714844 72.078125 151.941406 70.710938 C 154.167969 69.339844 155.988281 68.019531 155.988281 67.769531 C 155.988281 66.980469 155.429688 67.25 151.648438 69.882812 M 3.773438 70.863281 C 2.804688 71.042969 1.976562 71.683594 1.929688 72.289062 C 1.886719 72.894531 1.648438 74.515625 1.402344 75.890625 C 1.15625 77.269531 1.421875 78.660156 1.988281 78.984375 C 2.554688 79.3125 3.019531 80 3.019531 80.511719 C 3.019531 81.027344 2.566406 81.1875 2.011719 80.871094 C 1.460938 80.550781 1.007812 80.511719 1.007812 80.78125 C 1.007812 81.832031 8.445312 85.894531 9.382812 85.359375 C 9.929688 85.046875 10.109375 85.191406 9.78125 85.679688 C 9.453125 86.171875 14.136719 89.707031 20.1875 93.539062 C 26.234375 97.367188 34.75 102.816406 39.113281 105.644531 C 58.84375 118.441406 62.195312 120.484375 62.78125 120.089844 C 63.121094 119.859375 63.191406 119.933594 62.929688 120.261719 C 62.46875 120.84375 69.589844 125.703125 88.667969 137.832031 C 99.988281 145.027344 98.394531 144.6875 104.109375 141.105469 C 109.855469 137.503906 109.851562 137.480469 103.042969 133.277344 C 99.933594 131.363281 97.722656 130.359375 98.121094 131.042969 C 98.519531 131.730469 97.777344 131.21875 96.46875 129.910156 C 95.164062 128.597656 94.546875 128.140625 95.101562 128.890625 C 96.585938 130.910156 92.367188 128.71875 90.492188 126.5 C 89.15625 124.921875 89.195312 124.902344 91.078125 126.214844 C 92.867188 127.460938 92.957031 127.460938 91.910156 126.214844 C 91.257812 125.441406 89.222656 124.039062 87.378906 123.097656 C 84.03125 121.382812 84.03125 121.382812 86.546875 123.394531 C 88.609375 125.042969 88.679688 125.230469 86.941406 124.445312 C 85.773438 123.914062 84.042969 122.382812 83.09375 121.035156 C 82.101562 119.628906 80.769531 118.800781 79.964844 119.085938 C 79.191406 119.363281 78.25 119.121094 77.871094 118.546875 C 77.421875 117.875 77.644531 117.777344 78.496094 118.265625 C 79.367188 118.765625 79.570312 118.65625 79.101562 117.949219 C 78.707031 117.359375 77.449219 116.410156 76.308594 115.839844 C 74.832031 115.109375 74.425781 115.101562 74.90625 115.824219 C 75.324219 116.453125 75 116.636719 74.050781 116.296875 C 73.210938 115.996094 72.621094 115.339844 72.742188 114.832031 C 72.863281 114.328125 70.082031 112.015625 66.558594 109.699219 C 63.039062 107.382812 60.457031 105.9375 60.824219 106.488281 C 61.242188 107.113281 60.886719 107.277344 59.886719 106.921875 C 59.003906 106.605469 58.511719 106.136719 58.796875 105.871094 C 59.585938 105.140625 51.367188 99.898438 50.347656 100.484375 C 49.855469 100.769531 49.125 100.507812 48.722656 99.90625 C 48.238281 99.179688 48.46875 99.042969 49.40625 99.503906 C 51.820312 100.6875 46.070312 96.515625 40.253906 92.867188 C 37.210938 90.957031 33.601562 88.527344 32.234375 87.46875 C 30.699219 86.277344 30.234375 86.136719 31.023438 87.097656 C 31.898438 88.160156 31.964844 88.84375 31.234375 89.261719 C 30.605469 89.625 29.914062 88.695312 29.550781 87.007812 C 28.992188 84.421875 27.671875 83.597656 24.832031 84.054688 C 24.375 84.128906 24.234375 83.839844 24.515625 83.417969 C 24.796875 82.992188 24.105469 82.109375 22.976562 81.453125 C 21.554688 80.632812 21.148438 80.601562 21.652344 81.363281 C 22.207031 82.195312 21.871094 82.203125 20.25 81.398438 C 19.074219 80.8125 18.113281 80.117188 18.113281 79.847656 C 18.113281 79.578125 18.679688 79.671875 19.371094 80.058594 C 20.1875 80.511719 20.128906 80.1875 19.210938 79.136719 C 18.429688 78.242188 17.207031 77.722656 16.492188 77.976562 C 15.777344 78.230469 14.230469 77.304688 13.054688 75.914062 C 11.882812 74.527344 11.234375 73.957031 11.621094 74.652344 C 12.183594 75.667969 11.90625 75.707031 10.183594 74.855469 C 9.011719 74.269531 8.050781 73.570312 8.050781 73.300781 C 8.050781 73.035156 8.617188 73.128906 9.308594 73.515625 C 10.121094 73.96875 10.0625 73.640625 9.144531 72.589844 C 8.113281 71.410156 7.523438 71.269531 6.984375 72.078125 C 6.4375 72.898438 6.148438 72.839844 5.886719 71.863281 C 5.695312 71.132812 4.742188 70.679688 3.773438 70.863281 M 154.300781 93.726562 C 153.863281 94.367188 153.496094 95.175781 153.488281 95.515625 C 153.476562 95.859375 153.058594 96.492188 152.554688 96.917969 C 152.023438 97.371094 151.941406 97.207031 152.363281 96.53125 C 152.761719 95.886719 152.632812 95.359375 152.082031 95.359375 C 150.984375 95.359375 149.484375 97.1875 149.460938 98.554688 C 149.453125 99.027344 148.765625 99.585938 147.9375 99.796875 C 146.59375 100.136719 146.59375 100.066406 147.9375 99.1875 C 148.765625 98.640625 149.054688 98.1875 148.574219 98.179688 C 147.242188 98.15625 138.074219 104.617188 137.613281 105.90625 C 137.386719 106.527344 136.335938 107.039062 135.273438 107.042969 C 134.207031 107.046875 133.46875 107.601562 133.621094 108.285156 C 133.773438 108.964844 133.507812 109.300781 133.03125 109.027344 C 131.816406 108.328125 127.648438 111.191406 128.347656 112.242188 C 128.664062 112.714844 128.289062 112.878906 127.519531 112.601562 C 126.75 112.328125 125.480469 112.859375 124.699219 113.78125 C 123.375 115.347656 123.414062 115.367188 125.292969 114.058594 C 127.144531 112.769531 127.199219 112.785156 125.972656 114.238281 C 125.242188 115.105469 124.03125 115.601562 123.28125 115.332031 C 122.527344 115.0625 120.105469 116.585938 117.859375 118.738281 C 115.394531 121.09375 113.320312 122.355469 112.59375 121.9375 C 111.871094 121.523438 111.660156 121.648438 112.0625 122.253906 C 112.429688 122.804688 112.078125 123.863281 111.28125 124.605469 C 110.015625 125.78125 110.175781 126.191406 112.527344 127.78125 C 117.085938 130.859375 118.164062 131.339844 117.203125 129.863281 C 116.480469 128.75 116.609375 128.742188 118.039062 129.820312 C 119.867188 131.199219 118.125 132.203125 146.191406 113.5625 C 156.894531 106.457031 164.949219 92.007812 156.539062 95.003906 C 155.679688 95.3125 154.980469 95.125 154.980469 94.59375 C 154.980469 94.0625 155.773438 93.4375 156.742188 93.199219 C 158.332031 92.816406 158.335938 92.761719 156.800781 92.664062 C 155.867188 92.605469 154.742188 93.082031 154.300781 93.726562 M 2.285156 94.511719 C 3.265625 95.042969 3.800781 95.878906 3.472656 96.367188 C 3.148438 96.859375 2.457031 97.019531 1.941406 96.722656 C 1.40625 96.417969 1.007812 98.394531 1.007812 101.328125 C 1.007812 106.425781 3.6875 110.265625 6.226562 108.808594 C 6.703125 108.535156 6.96875 108.714844 6.816406 109.207031 C 6.519531 110.171875 12.136719 114.003906 43.425781 134.160156 C 54.597656 141.359375 64.117188 147.144531 64.578125 147.015625 C 65.039062 146.886719 65.414062 147.1875 65.414062 147.6875 C 65.414062 149.09375 77.523438 156.222656 78.734375 155.523438 C 79.375 155.160156 79.519531 155.347656 79.09375 155.984375 C 77.921875 157.753906 79.4375 157.238281 84.644531 154.101562 C 90.300781 150.699219 90.453125 150.339844 87.085938 148.289062 C 84.113281 146.480469 83.15625 146.371094 84.132812 147.949219 C 84.554688 148.628906 84.472656 148.792969 83.941406 148.339844 C 83.4375 147.910156 83.015625 147.070312 83 146.46875 C 82.988281 145.871094 82.242188 145.429688 81.347656 145.492188 C 80.449219 145.554688 78.421875 144.574219 76.839844 143.3125 C 73.96875 141.015625 73.96875 141.015625 77.492188 143.042969 C 81.011719 145.066406 81.011719 145.066406 78.089844 142.734375 C 76.484375 141.453125 74.605469 140.605469 73.914062 140.851562 C 73.226562 141.097656 72.320312 140.785156 71.902344 140.15625 C 71.382812 139.375 71.5625 139.253906 72.457031 139.769531 C 73.3125 140.257812 73.53125 140.160156 73.085938 139.488281 C 72.707031 138.914062 71.796875 138.660156 71.066406 138.921875 C 70.335938 139.183594 68.980469 138.324219 68.054688 137.011719 C 67.132812 135.699219 65.820312 134.632812 65.140625 134.640625 C 64.332031 134.652344 64.425781 135 65.414062 135.648438 C 66.753906 136.527344 66.753906 136.597656 65.414062 136.257812 C 64.582031 136.046875 63.902344 135.277344 63.902344 134.550781 C 63.902344 133.820312 63.140625 133.21875 62.210938 133.210938 C 61.285156 133.207031 60.152344 132.824219 59.699219 132.363281 C 59.21875 131.875 59.503906 131.824219 60.382812 132.242188 C 61.210938 132.636719 60.53125 131.878906 58.871094 130.554688 C 57.210938 129.226562 55.320312 128.316406 54.667969 128.523438 C 54.019531 128.734375 52.886719 128.195312 52.152344 127.328125 C 50.957031 125.90625 51 125.875 52.582031 127.027344 C 53.550781 127.734375 54.34375 128.078125 54.34375 127.796875 C 54.34375 127.511719 52.207031 125.941406 49.597656 124.304688 C 46.988281 122.667969 45.519531 122.082031 46.328125 123 C 47.738281 124.597656 47.6875 124.597656 45.035156 122.996094 C 42.25 121.3125 41.1875 119.972656 43.527344 121.097656 C 44.21875 121.429688 43.652344 120.828125 42.265625 119.765625 C 40.882812 118.703125 39.199219 118.015625 38.527344 118.242188 C 37.851562 118.46875 36.988281 118.183594 36.609375 117.613281 C 36.148438 116.921875 36.390625 116.839844 37.332031 117.367188 C 38.539062 118.042969 38.539062 117.921875 37.328125 116.53125 C 36.546875 115.640625 35.316406 115.121094 34.589844 115.378906 C 33.867188 115.636719 32.964844 115.378906 32.585938 114.808594 C 32.136719 114.136719 32.390625 114.023438 33.304688 114.484375 C 34.082031 114.878906 33.359375 114.117188 31.699219 112.789062 C 30.039062 111.464844 28.121094 110.5625 27.4375 110.785156 C 26.75 111.003906 26.296875 110.675781 26.429688 110.050781 C 26.5625 109.425781 25.90625 108.910156 24.980469 108.90625 C 24.050781 108.898438 22.917969 108.515625 22.464844 108.054688 C 21.984375 107.570312 22.273438 107.503906 23.148438 107.902344 C 23.976562 108.28125 23.5625 107.699219 22.226562 106.609375 C 20.890625 105.519531 19.222656 104.832031 18.523438 105.082031 C 17.828125 105.328125 16.65625 104.820312 15.921875 103.953125 C 14.699219 102.5 14.753906 102.484375 16.605469 103.773438 C 18.394531 105.019531 18.488281 105.019531 17.4375 103.773438 C 15.925781 101.976562 9.515625 98.453125 10.527344 99.976562 C 10.945312 100.605469 9.6875 100.144531 7.730469 98.953125 C 5.773438 97.761719 4.359375 96.609375 4.59375 96.394531 C 5.253906 95.777344 2.898438 93.488281 1.636719 93.519531 C 1.011719 93.535156 1.304688 93.980469 2.285156 94.511719 M 152.839844 120.316406 C 151.664062 121.664062 151.667969 121.78125 152.871094 121.105469 C 153.859375 120.554688 154.058594 120.660156 153.523438 121.457031 C 153.105469 122.085938 152.175781 122.390625 151.457031 122.136719 C 149.886719 121.574219 143.289062 125.945312 143.683594 127.28125 C 143.835938 127.796875 143.476562 127.945312 142.886719 127.605469 C 141.4375 126.773438 138.734375 128.957031 139.554688 130.292969 C 139.914062 130.875 139.839844 131.046875 139.390625 130.667969 C 138.941406 130.292969 137.929688 130.710938 137.144531 131.605469 C 136.355469 132.496094 136.027344 132.65625 136.414062 131.957031 C 136.894531 131.089844 136.289062 131.195312 134.484375 132.296875 C 133.035156 133.175781 132.097656 134.265625 132.398438 134.71875 C 132.699219 135.171875 132.277344 135.300781 131.457031 135.011719 C 130.550781 134.6875 129.308594 135.421875 128.269531 136.890625 C 127.335938 138.21875 125.742188 139.300781 124.734375 139.300781 C 123.722656 139.300781 122.574219 139.789062 122.179688 140.382812 C 121.695312 141.105469 121.921875 141.210938 122.871094 140.699219 C 123.652344 140.277344 123.257812 140.988281 122 142.273438 C 118.078125 146.277344 116.09375 155.726562 119.417969 154.539062 C 120.609375 154.117188 120.863281 154.289062 120.300781 155.132812 C 119.339844 156.582031 123.003906 154.445312 132.335938 148.121094 C 136.210938 145.492188 143.230469 140.898438 147.9375 137.90625 C 158.355469 131.285156 163.289062 120.605469 155.929688 120.605469 C 154.789062 120.605469 154.136719 120.183594 154.476562 119.667969 C 155.488281 118.148438 154.335938 118.601562 152.839844 120.316406 M 3.523438 121.128906 C 5.183594 121.925781 7.21875 123.21875 8.050781 123.996094 C 9.128906 125.007812 8.640625 124.929688 6.355469 123.726562 C 2.453125 121.675781 2.390625 121.730469 1.785156 127.871094 C 1.328125 132.507812 17.628906 146.007812 23.84375 146.132812 C 24.507812 146.144531 24.957031 146.480469 24.851562 146.875 C 24.398438 148.53125 37.542969 156.121094 38.964844 155.023438 C 42.566406 152.25 40.183594 143.921875 34.761719 140.304688 C 32.015625 138.472656 30.128906 137.601562 30.570312 138.371094 C 31.011719 139.140625 30.539062 138.910156 29.523438 137.859375 C 26.613281 134.851562 23.550781 132.851562 24.574219 134.628906 C 25.015625 135.398438 24.3125 134.945312 23.003906 133.625 C 19.617188 130.191406 16.441406 128.0625 17.527344 129.953125 C 17.972656 130.722656 17.265625 130.214844 15.960938 128.820312 C 13.144531 125.816406 3.613281 119.664062 1.785156 119.675781 C 1.078125 119.679688 1.863281 120.332031 3.523438 121.128906 M 155.125 146.910156 C 153.824219 147.359375 151.449219 148.59375 149.851562 149.652344 C 148.25 150.707031 146.539062 151.339844 146.042969 151.058594 C 145.550781 150.773438 144.527344 151.273438 143.773438 152.167969 C 142.503906 153.671875 142.550781 153.6875 144.414062 152.390625 C 146.289062 151.082031 146.332031 151.101562 145.019531 152.65625 C 144.242188 153.570312 143.109375 154.160156 142.5 153.957031 C 141.230469 153.539062 135.480469 157.023438 136.257812 157.746094 C 136.539062 158.007812 137.585938 157.464844 138.578125 156.542969 C 140.242188 155 140.414062 154.988281 140.714844 156.429688 C 141.148438 158.523438 156.730469 158.789062 157.585938 156.71875 C 159.210938 152.78125 157.53125 146.078125 155.125 146.910156 M 3.523438 147.628906 C 1.421875 148.207031 0.886719 152.769531 2.5 156.363281 C 3.515625 158.625 17.675781 158.855469 16.742188 156.597656 C 16.039062 154.890625 16.902344 154.804688 19.097656 156.363281 C 20 157.007812 19.367188 156.367188 17.683594 154.945312 C 16.003906 153.523438 14.066406 152.558594 13.382812 152.800781 C 12.699219 153.042969 11.828125 152.777344 11.449219 152.207031 C 11.003906 151.53125 11.222656 151.433594 12.078125 151.921875 C 12.972656 152.4375 13.152344 152.316406 12.632812 151.535156 C 12.214844 150.90625 11.253906 150.613281 10.496094 150.882812 C 9.742188 151.152344 8.8125 150.90625 8.429688 150.335938 C 7.984375 149.664062 8.203125 149.5625 9.058594 150.054688 C 9.925781 150.550781 10.132812 150.445312 9.660156 149.734375 C 8.503906 148 5.6875 147.03125 3.523438 147.628906 "/>
</g>
</svg>
